<svg width="246" height="57" viewBox="0 0 246 57" fill="none" xmlns="http://www.w3.org/2000/svg">
<g filter="url(#filter0_d_498_1822)">
<path d="M3.00002 8C3.00003 5.23857 5.2386 3 8.00002 3H182.753C186.324 3 189.777 4.27346 192.492 6.59147L230.688 39.1972C234.222 42.2143 232.089 48 227.442 48H122H8C5.23857 48 3 45.7614 3 43L3.00002 8Z" fill="#747474"/>
<path d="M8.00002 1.75C4.54825 1.75 1.75003 4.54822 1.75002 8L1.75 43C1.75 46.4518 4.54822 49.25 8 49.25H122H227.442C233.25 49.25 235.918 42.0178 231.5 38.2464L193.304 5.64076C190.362 3.12958 186.621 1.75 182.753 1.75H8.00002Z" stroke="url(#paint0_linear_498_1822)" stroke-width="2.5"/>
</g>
<defs>
<filter id="filter0_d_498_1822" x="0.5" y="0.5" width="245.457" height="56" filterUnits="userSpaceOnUse" color-interpolation-filters="sRGB">
<feFlood flood-opacity="0" result="BackgroundImageFix"/>
<feColorMatrix in="SourceAlpha" type="matrix" values="0 0 0 0 0 0 0 0 0 0 0 0 0 0 0 0 0 0 127 0" result="hardAlpha"/>
<feOffset dx="8" dy="3"/>
<feGaussianBlur stdDeviation="1.5"/>
<feComposite in2="hardAlpha" operator="out"/>
<feColorMatrix type="matrix" values="0 0 0 0 0 0 0 0 0 0 0 0 0 0 0 0 0 0 0.33 0"/>
<feBlend mode="normal" in2="BackgroundImageFix" result="effect1_dropShadow_498_1822"/>
<feBlend mode="normal" in="SourceGraphic" in2="effect1_dropShadow_498_1822" result="shape"/>
</filter>
<linearGradient id="paint0_linear_498_1822" x1="101.671" y1="48" x2="102.175" y2="1.00009" gradientUnits="userSpaceOnUse">
<stop stop-color="#747474"/>
<stop offset="0.31" stop-color="#E0E0E0"/>
</linearGradient>
</defs>
</svg>
